STARTFONT 2.1
FONT -sun-timmons-bold-r-normal--24-240-75-75-p-138-adobe-fontspecific
SIZE 24 75 75
FONTBOUNDINGBOX 28 29 -5 -5

STARTPROPERTIES 28
FOUNDRY "sun"
FAMILY_NAME "timmons"
WEIGHT_NAME "bold"
SLANT "r"
SETWIDTH_NAME "normal"
ADD_STYLE_NAME ""
PIXEL_SIZE 25
POINT_SIZE 240
RESOLUTION_X 75
RESOLUTION_Y 75
SPACING "p"
AVERAGE_WIDTH 138
CHARSET_REGISTRY "adobe"
CHARSET_ENCODING "fontspecific"
COPYRIGHT "© 1999 Sun Microsystems, Inc."
RAW_PIXELSIZE 1000
RAW_POINTSIZE 964
RAW_ASCENT 950
RAW_DESCENT 196
RAW_AVERAGE_WIDTH 5542
FACE_NAME "TimmonsBoldmonsB5"
_XMBDFED_INFO "Edited with xmbdfed 2.4."
WEIGHT 10
X_HEIGHT -2
QUAD_WIDTH 13
DEFAULT_CHAR 4
FONT_DESCENT 5
FONT_ASCENT 24
ENDPROPERTIES

CHARS 214

STARTCHAR char32
ENCODING 32
SWIDTH 25 0
DWIDTH 7 0
BBX 0 0 0 0
BITMAP
ENDCHAR

STARTCHAR char33
ENCODING 33
SWIDTH 28 0
DWIDTH 8 0
BBX 4 18 2 0
BITMAP
20
70
F0
F0
70
70
20
20
20
20
20
20
00
00
20
70
70
20
ENDCHAR

STARTCHAR char34
ENCODING 34
SWIDTH 6 0
DWIDTH 12 0
BBX 9 8 1 10
BITMAP
6100
F380
F380
7180
3080
2080
2300
C200
ENDCHAR

STARTCHAR char35
ENCODING 35
SWIDTH 13 0
DWIDTH 14 0
BBX 12 18 0 0
BITMAP
0C60
0C60
0C60
0C60
0C40
7FF0
08C0
18C0
18C0
18C0
18C0
FFF0
FFF0
1180
3180
3180
3180
3180
ENDCHAR

STARTCHAR char36
ENCODING 36
SWIDTH 21 0
DWIDTH 16 0
BBX 13 24 1 -3
BITMAP
0300
0300
0300
1FE0
7270
6230
E330
E310
F310
FF00
7F80
7FE0
1FF0
07F8
03F8
8278
8238
C238
E230
F270
3FC0
0200
0200
0200
ENDCHAR

STARTCHAR char37
ENCODING 37
SWIDTH 35 0
DWIDTH 20 0
BBX 18 18 0 0
BITMAP
301800
683000
C83000
CC6000
CC6000
CC4000
CCC000
CCCF00
CD9980
4999C0
6919C0
3319C0
0219C0
0219C0
0619C0
0419C0
0C1D80
080F00
ENDCHAR

STARTCHAR char38
ENCODING 38
SWIDTH 31 0
DWIDTH 19 0
BBX 17 18 0 0
BITMAP
01E000
027000
067000
0E7000
0E3000
0E6000
0FC000
079F80
078600
1B8600
73C400
61CC00
E1F800
F0F000
F87800
FCFF80
7FBF00
3E1E00
ENDCHAR

STARTCHAR char39
ENCODING 39
SWIDTH 21 0
DWIDTH 6 0
BBX 5 8 1 10
BITMAP
18
20
40
C0
F0
F8
F8
70
ENDCHAR

STARTCHAR char40
ENCODING 40
SWIDTH 32 0
DWIDTH 9 0
BBX 7 22 1 -4
BITMAP
02
0C
18
30
30
70
60
E0
E0
E0
E0
E0
E0
E0
60
60
70
30
18
08
06
02
ENDCHAR

STARTCHAR char41
ENCODING 41
SWIDTH 32 0
DWIDTH 9 0
BBX 6 21 1 -3
BITMAP
80
40
60
30
30
18
18
1C
1C
1C
1C
1C
1C
1C
18
18
18
30
20
40
80
ENDCHAR

STARTCHAR char42
ENCODING 42
SWIDTH 6 0
DWIDTH 12 0
BBX 10 9 1 9
BITMAP
1C00
1C00
DD80
FB80
FF80
1400
3700
7700
6300
ENDCHAR

STARTCHAR char43
ENCODING 43
SWIDTH 24 0
DWIDTH 17 0
BBX 15 15 0 0
BITMAP
0180
0180
0180
0180
0180
0180
0180
FFFE
FFFE
0180
0180
0180
0180
0180
0180
ENDCHAR

STARTCHAR char44
ENCODING 44
SWIDTH 25 0
DWIDTH 7 0
BBX 5 8 1 -4
BITMAP
70
F8
F8
78
18
10
20
40
ENDCHAR

STARTCHAR char45
ENCODING 45
SWIDTH 35 0
DWIDTH 10 0
BBX 8 3 1 6
BITMAP
FF
FF
FF
ENDCHAR

STARTCHAR char46
ENCODING 46
SWIDTH 25 0
DWIDTH 7 0
BBX 3 4 2 0
BITMAP
40
E0
E0
40
ENDCHAR

STARTCHAR char47
ENCODING 47
SWIDTH 3 0
DWIDTH 11 0
BBX 8 18 1 0
BITMAP
03
03
07
06
0E
0E
0C
1C
18
18
38
30
70
60
60
E0
C0
C0
ENDCHAR

STARTCHAR char48
ENCODING 48
SWIDTH 6 0
DWIDTH 12 0
BBX 10 18 1 0
BITMAP
1E00
3300
6380
6180
6180
E1C0
E1C0
E1C0
E1C0
E1C0
E1C0
E1C0
E1C0
6180
6180
6380
3300
1E00
ENDCHAR

STARTCHAR char49
ENCODING 49
SWIDTH 6 0
DWIDTH 12 0
BBX 9 18 1 0
BITMAP
0400
1C00
7C00
9C00
1C00
1C00
1C00
1C00
1C00
1C00
1C00
1C00
1C00
1C00
1C00
1C00
1C00
7F80
ENDCHAR

STARTCHAR char50
ENCODING 50
SWIDTH 6 0
DWIDTH 12 0
BBX 11 18 0 0
BITMAP
1F00
3F80
7FC0
C7C0
83C0
01C0
01C0
0180
0300
0300
0600
0C00
0800
1820
3020
7FC0
7FC0
FFC0
ENDCHAR

STARTCHAR char51
ENCODING 51
SWIDTH 6 0
DWIDTH 12 0
BBX 11 18 0 0
BITMAP
0F00
3F80
67C0
83C0
03C0
0380
0300
0700
1FC0
0FE0
03E0
01E0
00E0
00E0
00C0
E1C0
F180
7E00
ENDCHAR

STARTCHAR char52
ENCODING 52
SWIDTH 6 0
DWIDTH 12 0
BBX 11 18 0 0
BITMAP
0180
0180
0380
0780
0780
0B80
1380
1380
2380
6380
4380
8380
FFE0
FFE0
0380
0380
0380
0380
ENDCHAR

STARTCHAR char53
ENCODING 53
SWIDTH 6 0
DWIDTH 12 0
BBX 11 18 0 0
BITMAP
1FE0
1FC0
3FC0
2000
2000
6000
7E00
7F80
7F80
0FC0
03C0
01C0
00C0
00C0
00C0
E080
F900
7E00
ENDCHAR

STARTCHAR char54
ENCODING 54
SWIDTH 6 0
DWIDTH 12 0
BBX 10 18 1 0
BITMAP
00C0
0700
0C00
1800
3800
7000
7000
EF00
F380
E3C0
E1C0
E1C0
E1C0
E1C0
61C0
6180
3380
1E00
ENDCHAR

STARTCHAR char55
ENCODING 55
SWIDTH 6 0
DWIDTH 12 0
BBX 11 18 0 0
BITMAP
7FE0
7FE0
7FC0
C0C0
80C0
0180
0180
0180
0180
0300
0300
0300
0600
0600
0600
0E00
0C00
0C00
ENDCHAR

STARTCHAR char56
ENCODING 56
SWIDTH 6 0
DWIDTH 12 0
BBX 11 18 0 0
BITMAP
1F00
71C0
60E0
E0E0
F0E0
F8E0
FDC0
7F80
3F80
3FC0
77E0
E3E0
E1E0
E0E0
E0E0
F0E0
71C0
3F80
ENDCHAR

STARTCHAR char57
ENCODING 57
SWIDTH 6 0
DWIDTH 12 0
BBX 11 18 0 0
BITMAP
1E00
3380
71C0
61C0
E0E0
E0E0
E0E0
F0E0
F1E0
79E0
3FC0
01C0
03C0
0380
0700
0600
1C00
F000
ENDCHAR

STARTCHAR char58
ENCODING 58
SWIDTH 28 0
DWIDTH 8 0
BBX 4 12 2 0
BITMAP
20
70
70
20
00
00
00
00
20
70
F0
20
ENDCHAR

STARTCHAR char59
ENCODING 59
SWIDTH 28 0
DWIDTH 8 0
BBX 4 16 2 -4
BITMAP
20
70
70
20
00
00
00
00
30
F0
F0
30
10
10
20
40
ENDCHAR

STARTCHAR char60
ENCODING 60
SWIDTH 17 0
DWIDTH 15 0
BBX 12 13 1 0
BITMAP
0010
0070
01E0
0780
1C00
F000
C000
E000
3C00
0F00
03C0
00F0
0010
ENDCHAR

STARTCHAR char61
ENCODING 61
SWIDTH 24 0
DWIDTH 17 0
BBX 17 7 -1 4
BITMAP
FFFF80
FFFF80
000000
000000
000000
FFFF80
FFFF80
ENDCHAR

STARTCHAR char62
ENCODING 62
SWIDTH 17 0
DWIDTH 15 0
BBX 12 13 1 0
BITMAP
8000
E000
7800
1E00
0780
00E0
0030
0070
03C0
0F00
3C00
E000
8000
ENDCHAR

STARTCHAR char63
ENCODING 63
SWIDTH 6 0
DWIDTH 12 0
BBX 8 18 2 0
BITMAP
3C
6E
C6
E7
E7
47
07
0E
0C
10
10
30
00
00
10
38
38
10
ENDCHAR

STARTCHAR char64
ENCODING 64
SWIDTH 24 0
DWIDTH 27 0
BBX 18 18 4 0
BITMAP
07F800
1C0E00
300700
600180
63ED80
C7FCC0
CE1CC0
CC18C0
DC18C0
D818C0
D83180
D83100
DC7300
4FFE00
679980
300300
1C0C00
07F000
ENDCHAR

STARTCHAR char65
ENCODING 65
SWIDTH 21 0
DWIDTH 16 0
BBX 16 18 -1 0
BITMAP
0080
0080
01C0
01C0
03C0
03E0
07E0
04F0
04F0
0C70
0878
1FF8
1038
103C
303C
201C
701E
F87F
ENDCHAR

STARTCHAR char66
ENCODING 66
SWIDTH 24 0
DWIDTH 17 0
BBX 15 18 0 0
BITMAP
FFE0
7878
3838
381C
381C
381C
3838
3878
3FC0
38F8
383C
381E
381E
381E
381E
383C
3C78
FFF0
ENDCHAR

STARTCHAR char67
ENCODING 67
SWIDTH 24 0
DWIDTH 17 0
BBX 15 18 1 0
BITMAP
07E2
0E1E
1C0E
3806
7806
7002
F000
F000
F000
F000
F000
F000
F000
7002
7806
3C0C
1E18
07E0
ENDCHAR

STARTCHAR char68
ENCODING 68
SWIDTH 35 0
DWIDTH 20 0
BBX 17 18 0 0
BITMAP
FFE000
78F800
381C00
380E00
380F00
380F00
380780
380780
380780
380780
380780
380780
380780
380F00
380F00
381E00
7C3C00
FFF000
ENDCHAR

STARTCHAR char69
ENCODING 69
SWIDTH 21 0
DWIDTH 16 0
BBX 15 18 0 0
BITMAP
FFF8
3818
3808
3808
3808
3840
3840
3840
3FC0
3BC0
3840
3840
3820
3802
3804
380C
3C1C
FFFC
ENDCHAR

STARTCHAR char70
ENCODING 70
SWIDTH 17 0
DWIDTH 15 0
BBX 14 18 0 0
BITMAP
FFF8
3838
3808
3808
3808
3840
3840
38C0
3FC0
3CC0
3C40
3C20
3C20
3C00
3C00
3C00
3C00
FF00
ENDCHAR

STARTCHAR char71
ENCODING 71
SWIDTH 31 0
DWIDTH 19 0
BBX 16 18 1 0
BITMAP
07E6
0E1E
180E
3806
7002
7002
E000
E000
E000
E000
E07F
E01C
F01C
701C
701C
381C
1C1C
07F0
ENDCHAR

STARTCHAR char72
ENCODING 72
SWIDTH 35 0
DWIDTH 20 0
BBX 18 18 0 0
BITMAP
FF3FC0
3C0F80
380700
380700
380700
380700
380700
380700
380700
3FFF00
380700
380700
380700
380700
380700
380700
380F00
FF3FC0
ENDCHAR

STARTCHAR char73
ENCODING 73
SWIDTH 32 0
DWIDTH 9 0
BBX 8 18 0 0
BITMAP
FF
3E
1C
1C
1C
1C
1C
1C
1C
1C
1C
1C
1C
1C
1C
1C
3C
FF
ENDCHAR

STARTCHAR char74
ENCODING 74
SWIDTH 10 0
DWIDTH 13 0
BBX 12 18 0 0
BITMAP
0FF0
03C0
0380
0380
0380
0380
0380
0380
0380
0380
0380
0380
0380
E380
E380
E380
4700
3E00
ENDCHAR

STARTCHAR char75
ENCODING 75
SWIDTH 24 0
DWIDTH 17 0
BBX 16 18 0 0
BITMAP
FF7E
3C3C
3830
3820
3840
38C0
3880
3DC0
3FE0
3DE0
39F0
38F0
3878
3878
383C
383C
3C3E
FF7F
ENDCHAR

STARTCHAR char76
ENCODING 76
SWIDTH 21 0
DWIDTH 16 0
BBX 15 18 0 0
BITMAP
FF00
7C00
3800
3800
3800
3800
3800
3800
3800
3800
3800
3802
3802
3804
3804
380C
3C1C
FFFC
ENDCHAR

STARTCHAR char77
ENCODING 77
SWIDTH 13 0
DWIDTH 24 0
BBX 22 18 0 0
BITMAP
FC01FC
7E01F0
7E03E0
6F03E0
6F03E0
6F05E0
6784E0
6784E0
6388E0
63C8E0
63D0E0
61F0E0
61F0E0
61E0E0
60E0E0
60E0E0
6040F0
F843FC
ENDCHAR

STARTCHAR char78
ENCODING 78
SWIDTH 31 0
DWIDTH 19 0
BBX 17 18 0 0
BITMAP
FC0F80
7C0300
3E0300
3F0300
378300
378300
33C300
33E300
31F300
30F300
307B00
307F00
303F00
301F00
300F00
300F00
700700
F80300
ENDCHAR

STARTCHAR char79
ENCODING 79
SWIDTH 2 0
DWIDTH 21 0
BBX 17 18 1 0
BITMAP
07F000
0E3800
180E00
380600
700700
700700
F00380
E00380
E00380
E00380
E00380
E00780
F00700
700F00
780E00
381C00
1C3800
07E000
ENDCHAR

STARTCHAR char80
ENCODING 80
SWIDTH 21 0
DWIDTH 16 0
BBX 14 18 0 0
BITMAP
FFE0
3878
3838
381C
381C
381C
381C
3838
3870
3FC0
3C00
3C00
3C00
3C00
3C00
3C00
3C00
FF80
ENDCHAR

STARTCHAR char81
ENCODING 81
SWIDTH 2 0
DWIDTH 21 0
BBX 17 22 1 -4
BITMAP
07F000
0C3800
181C00
380E00
780F00
700700
F00780
F00380
F00380
F00380
F00380
F00380
700780
700700
380F00
381E00
1C3C00
07F000
03E000
01E000
00F800
003F00
ENDCHAR

STARTCHAR char82
ENCODING 82
SWIDTH 24 0
DWIDTH 17 0
BBX 16 18 0 0
BITMAP
FFE0
38F8
3878
383C
381C
381C
383C
3878
38F0
3FE0
3DE0
3CF0
3CF0
3C78
3C38
3C3C
3C1C
FF1F
ENDCHAR

STARTCHAR char83
ENCODING 83
SWIDTH 21 0
DWIDTH 16 0
BBX 13 18 1 0
BITMAP
1F90
30F0
6030
E030
E010
F000
FC00
7F00
7FE0
1FF0
07F0
01F8
8078
8038
C038
E030
F070
8FC0
ENDCHAR

STARTCHAR char84
ENCODING 84
SWIDTH 21 0
DWIDTH 16 0
BBX 15 18 0 0
BITMAP
FFFE
C73E
870E
8706
8706
0700
0700
0700
0700
0700
0700
0700
0700
0700
0700
0700
0780
1FE0
ENDCHAR

STARTCHAR char85
ENCODING 85
SWIDTH 31 0
DWIDTH 19 0
BBX 17 18 0 0
BITMAP
FE0780
7C0300
380200
380200
380200
380200
380200
380200
380200
380200
380200
380300
380300
380300
380300
1C0600
1E0C00
07F000
ENDCHAR

STARTCHAR char86
ENCODING 86
SWIDTH 21 0
DWIDTH 16 0
BBX 16 18 -1 0
BITMAP
FF1F
7C0E
3C04
3E0C
3E0C
1E08
1F18
1F10
0F10
0FB0
0FA0
07A0
07E0
03C0
03C0
0380
0180
0180
ENDCHAR

STARTCHAR char87
ENCODING 87
SWIDTH 13 0
DWIDTH 24 0
BBX 22 18 -1 0
BITMAP
FEFF1C
7C3E08
3C3C08
3C1E08
3C1E08
1E1E10
1E1F10
1E1F10
0F3720
0F27A0
0F67A0
07C3C0
07C3C0
07C380
038180
038180
010180
010080
ENDCHAR

STARTCHAR char88
ENCODING 88
SWIDTH 21 0
DWIDTH 16 0
BBX 15 18 0 0
BITMAP
FE7E
3C38
3C30
1C20
1E60
0EC0
0F80
0780
0780
07C0
07C0
07E0
09E0
19F0
10F0
30F8
70FC
F9FE
ENDCHAR

STARTCHAR char89
ENCODING 89
SWIDTH 21 0
DWIDTH 16 0
BBX 16 18 -1 0
BITMAP
FF0F
7C06
3C04
1E04
1E04
1F08
0F08
0F90
07D0
07E0
03C0
03C0
01C0
01C0
01C0
01C0
03C0
0FF8
ENDCHAR

STARTCHAR char90
ENCODING 90
SWIDTH 24 0
DWIDTH 17 0
BBX 16 18 -1 0
BITMAP
3FFE
3C3C
307C
2078
20F8
00F0
01F0
03E0
03C0
07C0
0780
0F80
0F01
1F01
3E01
3C03
7C0F
7FFF
ENDCHAR

STARTCHAR char91
ENCODING 91
SWIDTH 28 0
DWIDTH 8 0
BBX 5 21 1 -3
BITMAP
F8
E0
E0
E0
E0
E0
E0
E0
E0
E0
E0
E0
E0
E0
E0
E0
E0
E0
E0
E0
F8
ENDCHAR

STARTCHAR char92
ENCODING 92
SWIDTH 25 0
DWIDTH 7 0
BBX 7 18 0 0
BITMAP
C0
C0
40
40
60
60
20
30
30
10
18
18
08
0C
0C
04
06
06
ENDCHAR

STARTCHAR char93
ENCODING 93
SWIDTH 28 0
DWIDTH 8 0
BBX 5 21 1 -3
BITMAP
F8
38
38
38
38
38
38
38
38
38
38
38
38
38
38
38
38
38
38
38
F8
ENDCHAR

STARTCHAR char94
ENCODING 94
SWIDTH 0 0
DWIDTH 0 0
BBX 8 3 -4 19
BITMAP
7E
7E
C3
ENDCHAR

STARTCHAR char95
ENCODING 95
SWIDTH 17 0
DWIDTH 15 0
BBX 14 1 0 -3
BITMAP
FFFC
ENDCHAR

STARTCHAR char96
ENCODING 96
SWIDTH 0 0
DWIDTH 0 0
BBX 5 4 -4 13
BITMAP
70
30
18
08
ENDCHAR

STARTCHAR char97
ENCODING 97
SWIDTH 6 0
DWIDTH 12 0
BBX 11 12 0 0
BITMAP
1F00
6380
E380
F380
E380
0F80
3B80
7380
E380
F380
FFE0
79C0
ENDCHAR

STARTCHAR char98
ENCODING 98
SWIDTH 10 0
DWIDTH 13 0
BBX 11 18 0 0
BITMAP
F000
7000
7000
7000
7000
7000
7780
79C0
70E0
70E0
70E0
70E0
70E0
70E0
71C0
71C0
7980
4F00
ENDCHAR

STARTCHAR char99
ENCODING 99
SWIDTH 3 0
DWIDTH 11 0
BBX 9 12 1 0
BITMAP
1E00
2700
6380
E380
E000
E000
E000
E000
F080
7880
7F00
3E00
ENDCHAR

STARTCHAR char100
ENCODING 100
SWIDTH 10 0
DWIDTH 13 0
BBX 11 18 1 0
BITMAP
0F80
0380
0380
0380
0380
0380
3F80
7380
6380
E380
E380
E380
E380
E380
E380
6380
77E0
3B00
ENDCHAR

STARTCHAR char101
ENCODING 101
SWIDTH 6 0
DWIDTH 12 0
BBX 10 12 1 0
BITMAP
1E00
3300
6380
E380
E380
FF80
E000
E000
E040
7080
7F00
3E00
ENDCHAR

STARTCHAR char102
ENCODING 102
SWIDTH 28 0
DWIDTH 8 0
BBX 9 18 0 0
BITMAP
0F00
1B80
3B80
3800
3800
3800
FE00
7800
7800
7800
7800
7800
7800
7800
7800
7800
7800
FE00
ENDCHAR

STARTCHAR char103
ENCODING 103
SWIDTH 6 0
DWIDTH 12 0
BBX 11 16 0 -4
BITMAP
1FE0
33E0
71C0
71C0
71C0
71C0
3380
1F00
2000
2000
7FC0
7FC0
1FE0
6060
4040
3F80
ENDCHAR

STARTCHAR char104
ENCODING 104
SWIDTH 13 0
DWIDTH 14 0
BBX 12 18 0 0
BITMAP
F800
7800
3800
3800
3800
3800
3BC0
3FE0
3CE0
38E0
38E0
38E0
38E0
38E0
38E0
38E0
78E0
FDF0
ENDCHAR

STARTCHAR char105
ENCODING 105
SWIDTH 25 0
DWIDTH 7 0
BBX 6 18 0 0
BITMAP
10
38
38
10
00
00
F8
38
38
38
38
38
38
38
38
38
38
FC
ENDCHAR

STARTCHAR char106
ENCODING 106
SWIDTH 25 0
DWIDTH 7 0
BBX 7 22 -3 -4
BITMAP
04
0E
0E
04
00
00
1E
0E
0E
0E
0E
0E
0E
0E
0E
0E
0E
0E
0E
EE
EE
7C
ENDCHAR

STARTCHAR char107
ENCODING 107
SWIDTH 10 0
DWIDTH 13 0
BBX 12 18 0 0
BITMAP
F000
7000
7000
7000
7000
7000
73E0
7180
7100
7200
7600
7700
7F00
7380
73C0
71C0
71E0
FBF0
ENDCHAR

STARTCHAR char108
ENCODING 108
SWIDTH 25 0
DWIDTH 7 0
BBX 6 18 0 0
BITMAP
F0
70
70
70
70
70
70
70
70
70
70
70
70
70
70
70
70
FC
ENDCHAR

STARTCHAR char109
ENCODING 109
SWIDTH 35 0
DWIDTH 20 0
BBX 18 12 0 0
BITMAP
F3C700
77FF00
78E380
70E380
70E380
70E380
70E380
70E380
70E380
70E380
78E380
FFF7C0
ENDCHAR

STARTCHAR char110
ENCODING 110
SWIDTH 13 0
DWIDTH 14 0
BBX 12 12 0 0
BITMAP
F3C0
75E0
78E0
70E0
70E0
70E0
70E0
70E0
70E0
70E0
70E0
FDF0
ENDCHAR

STARTCHAR char111
ENCODING 111
SWIDTH 6 0
DWIDTH 12 0
BBX 10 12 1 0
BITMAP
1E00
7380
6180
E1C0
E1C0
E1C0
E1C0
E1C0
E1C0
6180
3300
1E00
ENDCHAR

STARTCHAR char112
ENCODING 112
SWIDTH 10 0
DWIDTH 13 0
BBX 11 16 0 -4
BITMAP
7780
79C0
71C0
70E0
70E0
70E0
70E0
70E0
70E0
71C0
79C0
7780
7000
7000
7000
FC00
ENDCHAR

STARTCHAR char113
ENCODING 113
SWIDTH 10 0
DWIDTH 13 0
BBX 11 16 1 -4
BITMAP
3C80
7380
6380
E380
E380
E380
E380
E380
E380
E380
7780
3B80
0380
0380
0380
07E0
ENDCHAR

STARTCHAR char114
ENCODING 114
SWIDTH 32 0
DWIDTH 9 0
BBX 9 12 0 0
BITMAP
FB80
3F80
3B80
3800
3800
3800
3800
3800
3800
3800
3800
FE00
ENDCHAR

STARTCHAR char115
ENCODING 115
SWIDTH 35 0
DWIDTH 10 0
BBX 9 12 0 0
BITMAP
3D00
6300
E100
F100
F800
7E00
3F00
1F80
8780
C380
E300
9E00
ENDCHAR

STARTCHAR char116
ENCODING 116
SWIDTH 28 0
DWIDTH 8 0
BBX 7 16 0 0
BITMAP
18
18
38
78
FE
70
70
70
70
70
70
70
70
70
7A
3C
ENDCHAR

STARTCHAR char117
ENCODING 117
SWIDTH 13 0
DWIDTH 14 0
BBX 12 12 0 0
BITMAP
F3E0
70E0
70E0
70E0
70E0
70E0
70E0
70E0
70E0
71E0
7EE0
3CF0
ENDCHAR

STARTCHAR char118
ENCODING 118
SWIDTH 3 0
DWIDTH 11 0
BBX 10 12 0 0
BITMAP
FDC0
7880
3880
3880
3D00
1D00
1D00
1E00
0E00
0C00
0400
0400
ENDCHAR

STARTCHAR char119
ENCODING 119
SWIDTH 21 0
DWIDTH 16 0
BBX 15 12 0 0
BITMAP
FBEE
71C4
71C4
39E4
39E8
3EE8
1EF0
1C70
0C70
0C60
0820
0820
ENDCHAR

STARTCHAR char120
ENCODING 120
SWIDTH 6 0
DWIDTH 12 0
BBX 12 12 0 0
BITMAP
FDE0
7880
3880
1D00
1E00
1E00
0F00
0F00
1780
2380
23C0
F7F0
ENDCHAR

STARTCHAR char121
ENCODING 121
SWIDTH 6 0
DWIDTH 12 0
BBX 11 16 0 -4
BITMAP
FCE0
7840
7840
3840
3C80
1C80
1F00
1E00
0E00
0E00
0400
0400
E400
E800
F800
7000
ENDCHAR

STARTCHAR char122
ENCODING 122
SWIDTH 35 0
DWIDTH 10 0
BBX 10 12 -1 0
BITMAP
FFC0
E3C0
C780
C780
0F00
0F00
1E00
1E00
3C40
3840
78C0
7FC0
ENDCHAR

STARTCHAR char123
ENCODING 123
SWIDTH 32 0
DWIDTH 9 0
BBX 6 23 1 -5
BITMAP
1C
38
30
30
30
30
30
30
30
30
60
C0
60
30
30
30
30
30
30
30
30
38
1C
ENDCHAR

STARTCHAR char124
ENCODING 124
SWIDTH 25 0
DWIDTH 7 0
BBX 2 18 2 0
BITMAP
C0
C0
C0
C0
C0
C0
C0
C0
C0
C0
C0
C0
C0
C0
C0
C0
C0
C0
ENDCHAR

STARTCHAR char125
ENCODING 125
SWIDTH 32 0
DWIDTH 9 0
BBX 5 23 2 -5
BITMAP
E0
20
20
20
20
20
20
20
20
10
18
18
10
10
20
20
20
20
20
20
20
20
C0
ENDCHAR

STARTCHAR char126
ENCODING 126
SWIDTH 0 0
DWIDTH 0 0
BBX 10 4 -5 19
BITMAP
0040
3CC0
7F80
4300
ENDCHAR

STARTCHAR char128
ENCODING 128
SWIDTH 6 0
DWIDTH 12 0
BBX 13 17 0 0
BITMAP
03E0
0E38
1C18
3C18
3818
7800
7800
FFC0
7800
FFC0
7800
7800
7800
3808
3C10
1C60
0F80
ENDCHAR

STARTCHAR char130
ENCODING 130
SWIDTH 21 0
DWIDTH 6 0
BBX 5 8 0 -4
BITMAP
70
F8
F8
78
18
10
20
40
ENDCHAR

STARTCHAR char131
ENCODING 131
SWIDTH 0 0
DWIDTH 0 0
BBX 8 3 -4 19
BITMAP
7E
7E
C3
ENDCHAR

STARTCHAR char132
ENCODING 132
SWIDTH 6 0
DWIDTH 12 0
BBX 9 8 1 -4
BITMAP
6300
F780
F780
7380
3180
2100
6300
8200
ENDCHAR

STARTCHAR char133
ENCODING 133
SWIDTH 24 0
DWIDTH 27 0
BBX 19 3 3 0
BITMAP
E0E0E0
E0E0E0
E0E0E0
ENDCHAR

STARTCHAR char134
ENCODING 134
SWIDTH 6 0
DWIDTH 12 0
BBX 11 23 0 -5
BITMAP
0E00
0E00
0E00
0E00
7DC0
FFE0
64C0
0400
0E00
0E00
0E00
0C00
0C00
0C00
0C00
0C00
0C00
0C00
0C00
0C00
0C00
0C00
0C00
ENDCHAR

STARTCHAR char135
ENCODING 135
SWIDTH 16 0
DWIDTH 25 0
BBX 0 0 0 0
BITMAP
ENDCHAR

STARTCHAR char136
ENCODING 136
SWIDTH 0 0
DWIDTH 0 0
BBX 8 4 -4 13
BITMAP
3C
7C
66
C3
ENDCHAR

STARTCHAR char137
ENCODING 137
SWIDTH 16 0
DWIDTH 25 0
BBX 0 0 0 0
BITMAP
ENDCHAR

STARTCHAR char138
ENCODING 138
SWIDTH 16 0
DWIDTH 25 0
BBX 0 0 0 0
BITMAP
ENDCHAR

STARTCHAR char139
ENCODING 139
SWIDTH 32 0
DWIDTH 9 0
BBX 4 8 2 3
BITMAP
10
30
70
C0
C0
60
30
10
ENDCHAR

STARTCHAR char140
ENCODING 140
SWIDTH 20 0
DWIDTH 26 0
BBX 22 18 1 0
BITMAP
07FFFC
0C7C3C
183C1C
303C0C
701C0C
F01C60
E01C60
E01CE0
E01FE0
E01CE0
E01C60
E01C60
601C64
703C04
303C0C
383C0C
1C7C3C
07FFF8
ENDCHAR

STARTCHAR char141
ENCODING 141
SWIDTH 16 0
DWIDTH 25 0
BBX 0 0 0 0
BITMAP
ENDCHAR

STARTCHAR char143
ENCODING 143
SWIDTH 16 0
DWIDTH 25 0
BBX 0 0 0 0
BITMAP
ENDCHAR

STARTCHAR char145
ENCODING 145
SWIDTH 25 0
DWIDTH 7 0
BBX 4 8 1 10
BITMAP
10
20
40
C0
F0
F0
F0
70
ENDCHAR

STARTCHAR char146
ENCODING 146
SWIDTH 25 0
DWIDTH 7 0
BBX 5 8 1 10
BITMAP
70
F8
F8
78
18
30
20
40
ENDCHAR

STARTCHAR char147
ENCODING 147
SWIDTH 6 0
DWIDTH 12 0
BBX 9 8 1 10
BITMAP
2080
6300
4200
C400
E700
F780
F780
6300
ENDCHAR

STARTCHAR char148
ENCODING 148
SWIDTH 6 0
DWIDTH 12 0
BBX 9 8 1 10
BITMAP
6100
F380
F380
7180
3080
2080
2300
C200
ENDCHAR

STARTCHAR char149
ENCODING 149
SWIDTH 32 0
DWIDTH 9 0
BBX 7 6 1 6
BITMAP
38
7C
FE
FE
FE
38
ENDCHAR

STARTCHAR char150
ENCODING 150
SWIDTH 6 0
DWIDTH 12 0
BBX 10 3 1 6
BITMAP
FFC0
FFC0
FFC0
ENDCHAR

STARTCHAR char151
ENCODING 151
SWIDTH 24 0
DWIDTH 17 0
BBX 17 2 -1 6
BITMAP
FFFF80
FFFF80
ENDCHAR

STARTCHAR char152
ENCODING 152
SWIDTH 0 0
DWIDTH 0 0
BBX 8 3 -4 14
BITMAP
79
FF
9E
ENDCHAR

STARTCHAR char153
ENCODING 153
SWIDTH 9 0
DWIDTH 23 0
BBX 21 10 0 7
BITMAP
FFF038
89B070
99B850
1838F0
1828B0
182CB0
182530
182730
182630
3C7278
ENDCHAR

STARTCHAR char154
ENCODING 154
SWIDTH 16 0
DWIDTH 25 0
BBX 0 0 0 0
BITMAP
ENDCHAR

STARTCHAR char155
ENCODING 155
SWIDTH 32 0
DWIDTH 9 0
BBX 4 8 2 3
BITMAP
80
C0
70
30
30
70
C0
80
ENDCHAR

STARTCHAR char156
ENCODING 156
SWIDTH 31 0
DWIDTH 19 0
BBX 17 12 0 0
BITMAP
1F3C00
31E600
61E700
E1C300
E1C300
E1FF80
E1C000
E1E000
E1E100
61F100
31FE00
1F3C00
ENDCHAR

STARTCHAR char157
ENCODING 157
SWIDTH 16 0
DWIDTH 25 0
BBX 0 0 0 0
BITMAP
ENDCHAR

STARTCHAR char159
ENCODING 159
SWIDTH 21 0
DWIDTH 16 0
BBX 16 23 -1 0
BITMAP
0C10
1E38
1C38
0C10
0000
FF0F
7C06
3C04
1E04
1E04
1F08
0F08
0F90
07D0
07E0
03C0
03C0
01C0
01C0
01C0
01C0
03C0
0FF8
ENDCHAR

STARTCHAR char160
ENCODING 160
SWIDTH 25 0
DWIDTH 7 0
BBX 0 0 0 0
BITMAP
ENDCHAR

STARTCHAR char161
ENCODING 161
SWIDTH 28 0
DWIDTH 8 0
BBX 4 18 1 0
BITMAP
20
F0
F0
20
00
00
20
20
20
20
20
20
20
70
70
70
70
20
ENDCHAR

STARTCHAR char162
ENCODING 162
SWIDTH 3 0
DWIDTH 11 0
BBX 9 18 1 -3
BITMAP
0800
0800
0800
3F00
2F80
6B80
EB80
E800
E800
E800
E800
F880
7880
7F00
3E00
0800
0800
0800
ENDCHAR

STARTCHAR char163
ENCODING 163
SWIDTH 13 0
DWIDTH 14 0
BBX 14 18 -1 0
BITMAP
01E0
0718
0E38
0E38
0E10
0E00
0F00
0700
3FE0
0700
0380
0380
0380
0304
7F08
CFD8
C7F8
79F0
ENDCHAR

STARTCHAR char164
ENCODING 164
SWIDTH 0 0
DWIDTH 0 0
BBX 7 3 -2 19
BITMAP
7C
78
60
ENDCHAR

STARTCHAR char165
ENCODING 165
SWIDTH 0 0
DWIDTH 0 0
BBX 8 3 -4 19
BITMAP
C3
7E
7E
ENDCHAR

STARTCHAR char166
ENCODING 166
SWIDTH 16 0
DWIDTH 25 0
BBX 0 0 0 0
BITMAP
ENDCHAR

STARTCHAR char167
ENCODING 167
SWIDTH 6 0
DWIDTH 12 0
BBX 9 22 1 -4
BITMAP
1E00
6300
6380
E380
7100
7800
3C00
7F00
CF80
8380
C180
C180
F080
F980
7F00
1E00
0F00
4380
E380
E180
6300
3E00
ENDCHAR

STARTCHAR char168
ENCODING 168
SWIDTH 0 0
DWIDTH 0 0
BBX 9 4 -5 13
BITMAP
4100
E380
E380
4100
ENDCHAR

STARTCHAR char169
ENCODING 169
SWIDTH 35 0
DWIDTH 20 0
BBX 18 17 0 0
BITMAP
01F000
060C00
080600
100300
20F980
611880
4208C0
C600C0
C600C0
C600C0
C600C0
4200C0
631880
31E180
100300
0C0600
03F800
ENDCHAR

STARTCHAR char170
ENCODING 170
SWIDTH 0 0
DWIDTH 0 0
BBX 10 4 -5 19
BITMAP
4080
E1C0
E1C0
4080
ENDCHAR

STARTCHAR char171
ENCODING 171
SWIDTH 10 0
DWIDTH 13 0
BBX 10 11 1 2
BITMAP
0840
1880
3180
3380
6300
E700
E700
6300
3180
1080
0840
ENDCHAR

STARTCHAR char172
ENCODING 172
SWIDTH 28 0
DWIDTH 18 0
BBX 17 7 0 0
BITMAP
FFFF80
000180
000180
000180
000180
000180
000180
ENDCHAR

STARTCHAR char173
ENCODING 173
SWIDTH 16 0
DWIDTH 25 0
BBX 0 0 0 0
BITMAP
ENDCHAR

STARTCHAR char174
ENCODING 174
SWIDTH 35 0
DWIDTH 20 0
BBX 18 16 0 0
BITMAP
03F800
0C0600
100300
27F100
631880
4318C0
C318C0
C3E0C0
C360C0
C330C0
4338C0
631880
279D80
100300
0C0600
03F800
ENDCHAR

STARTCHAR char175
ENCODING 175
SWIDTH 16 0
DWIDTH 25 0
BBX 0 0 0 0
BITMAP
ENDCHAR

STARTCHAR char176
ENCODING 176
SWIDTH 25 0
DWIDTH 7 0
BBX 8 8 -1 9
BITMAP
1C
66
43
C3
C3
43
26
1C
ENDCHAR

STARTCHAR char177
ENCODING 177
SWIDTH 13 0
DWIDTH 14 0
BBX 13 16 0 0
BITMAP
0600
0600
0600
0600
0600
0600
FFF8
0600
0600
0600
0600
0600
0600
0000
0000
FFF8
ENDCHAR

STARTCHAR char178
ENCODING 178
SWIDTH 16 0
DWIDTH 25 0
BBX 0 0 0 0
BITMAP
ENDCHAR

STARTCHAR char179
ENCODING 179
SWIDTH 16 0
DWIDTH 25 0
BBX 0 0 0 0
BITMAP
ENDCHAR

STARTCHAR char180
ENCODING 180
SWIDTH 0 0
DWIDTH 0 0
BBX 5 4 -1 13
BITMAP
70
E0
C0
80
ENDCHAR

STARTCHAR char181
ENCODING 181
SWIDTH 16 0
DWIDTH 25 0
BBX 0 0 0 0
BITMAP
ENDCHAR

STARTCHAR char182
ENCODING 182
SWIDTH 28 0
DWIDTH 18 0
BBX 11 21 2 -4
BITMAP
1FE0
3C60
7C60
FC60
FC60
FC60
7C60
7C60
3C60
0C60
0C60
0C60
0C60
0C60
0C60
0C60
0C60
0C60
0C60
0C60
0C60
ENDCHAR

STARTCHAR char183
ENCODING 183
SWIDTH 14 0
DWIDTH 4 0
BBX 3 3 1 6
BITMAP
40
E0
E0
ENDCHAR

STARTCHAR char184
ENCODING 184
SWIDTH 0 0
DWIDTH 0 0
BBX 6 5 -3 -5
BITMAP
18
3C
1C
1C
F0
ENDCHAR

STARTCHAR char186
ENCODING 186
SWIDTH 0 0
DWIDTH 0 0
BBX 10 4 -5 19
BITMAP
0040
3CC0
7F80
4300
ENDCHAR

STARTCHAR char187
ENCODING 187
SWIDTH 10 0
DWIDTH 13 0
BBX 10 12 1 1
BITMAP
8400
C400
4600
6300
7380
39C0
3980
7380
6300
C600
8400
8400
ENDCHAR

STARTCHAR char188
ENCODING 188
SWIDTH 16 0
DWIDTH 25 0
BBX 0 0 0 0
BITMAP
ENDCHAR

STARTCHAR char189
ENCODING 189
SWIDTH 16 0
DWIDTH 25 0
BBX 0 0 0 0
BITMAP
ENDCHAR

STARTCHAR char191
ENCODING 191
SWIDTH 6 0
DWIDTH 12 0
BBX 9 18 1 0
BITMAP
0C00
1E00
1E00
0C00
0000
0000
0C00
0C00
0800
1800
7000
7000
E000
E380
E380
F380
7100
3E00
ENDCHAR

STARTCHAR char192
ENCODING 192
SWIDTH 21 0
DWIDTH 16 0
BBX 16 22 -1 0
BITMAP
07C0
01C0
00E0
0000
0080
0080
01C0
01C0
03C0
03E0
07E0
04F0
04F0
0C70
0878
1FF8
1038
103C
303C
201C
701E
F87F
ENDCHAR

STARTCHAR char193
ENCODING 193
SWIDTH 21 0
DWIDTH 16 0
BBX 16 22 -1 0
BITMAP
00F0
01E0
0180
0000
0080
0080
01C0
01C0
03C0
03E0
07E0
04F0
04F0
0C70
0878
1FF8
1038
103C
303C
201C
701E
F87F
ENDCHAR

STARTCHAR char194
ENCODING 194
SWIDTH 21 0
DWIDTH 16 0
BBX 16 22 -1 0
BITMAP
07E0
0FE0
0C30
0000
0080
0080
01C0
01C0
03C0
03E0
07E0
04F0
04F0
0C70
0878
1FF8
1038
103C
303C
201C
701E
F87F
ENDCHAR

STARTCHAR char195
ENCODING 195
SWIDTH 21 0
DWIDTH 16 0
BBX 16 23 -1 0
BITMAP
0008
0798
0FF0
0860
0000
0080
0080
01C0
01C0
03C0
03E0
07E0
04F0
04F0
0C70
0878
1FF8
1038
103C
303C
201C
701E
F87F
ENDCHAR

STARTCHAR char196
ENCODING 196
SWIDTH 21 0
DWIDTH 16 0
BBX 16 23 -1 0
BITMAP
0410
0E38
0E38
0410
0000
0080
0080
01C0
01C0
01E0
03E0
03E0
02F0
04F0
0470
0C78
0FF8
103C
103C
103C
201E
701E
F87F
ENDCHAR

STARTCHAR char197
ENCODING 197
SWIDTH 21 0
DWIDTH 16 0
BBX 16 24 -1 0
BITMAP
01C0
0360
0360
0360
01C0
0000
0080
0080
01C0
01C0
03E0
03E0
03E0
04F0
04F0
0C70
0878
1FF8
107C
107C
307C
203E
703E
F87F
ENDCHAR

STARTCHAR char198
ENCODING 198
SWIDTH 13 0
DWIDTH 24 0
BBX 23 18 -1 0
BITMAP
003FFC
003E1C
005E0C
005E04
00CE04
008E60
018E60
030E60
030FE0
07FFE0
041E60
0C1E60
081E60
181E02
101E02
301E06
601E0E
F8FFFE
ENDCHAR

STARTCHAR char199
ENCODING 199
SWIDTH 24 0
DWIDTH 17 0
BBX 15 23 1 -5
BITMAP
07E2
1E1E
180E
3806
7806
7002
F000
F000
F000
F000
F000
F000
F000
7002
7806
3C0C
1E18
0FE0
0300
0780
0380
0380
0F00
ENDCHAR

STARTCHAR char200
ENCODING 200
SWIDTH 21 0
DWIDTH 16 0
BBX 15 22 0 0
BITMAP
0F80
03C0
01C0
0000
FFF8
3838
3808
3808
3808
3840
3840
3840
3FC0
3BC0
3840
3840
3820
3802
3804
380C
3C1C
FFFC
ENDCHAR

STARTCHAR char201
ENCODING 201
SWIDTH 21 0
DWIDTH 16 0
BBX 15 22 0 0
BITMAP
01E0
03C0
0300
0000
FFF8
3838
3808
3808
3808
3840
3840
3840
3FC0
3BC0
3840
3840
3820
3802
3804
380C
3C1C
FFFC
ENDCHAR

STARTCHAR char202
ENCODING 202
SWIDTH 21 0
DWIDTH 16 0
BBX 15 22 0 0
BITMAP
0FC0
1FE0
1860
0000
FFF8
3838
3808
3808
3808
3840
3840
3840
3FC0
3BC0
3840
3840
3820
3802
3804
380C
3C1C
FFFC
ENDCHAR

STARTCHAR char203
ENCODING 203
SWIDTH 21 0
DWIDTH 16 0
BBX 15 23 0 0
BITMAP
1020
3870
3870
1020
0000
FFF8
3838
3818
3808
3808
3840
3840
38C0
3FC0
39C0
3840
3840
3840
3802
3804
380C
3C1C
FFFC
ENDCHAR

STARTCHAR char204
ENCODING 204
SWIDTH 32 0
DWIDTH 9 0
BBX 8 22 -1 0
BITMAP
78
38
0C
00
FF
7C
38
38
38
38
38
38
38
38
38
38
38
38
38
38
38
FF
ENDCHAR

STARTCHAR char205
ENCODING 205
SWIDTH 32 0
DWIDTH 9 0
BBX 8 22 0 0
BITMAP
0F
0E
1C
00
FF
3E
1C
1C
1C
1C
1C
1C
1C
1C
1C
1C
1C
1C
1C
1C
3C
FF
ENDCHAR

STARTCHAR char206
ENCODING 206
SWIDTH 32 0
DWIDTH 9 0
BBX 8 22 0 0
BITMAP
7E
7E
C3
00
FF
3E
1C
1C
1C
1C
1C
1C
1C
1C
1C
1C
1C
1C
1C
1C
3C
FF
ENDCHAR

STARTCHAR char207
ENCODING 207
SWIDTH 32 0
DWIDTH 9 0
BBX 10 23 -1 0
BITMAP
60C0
F1C0
E1C0
60C0
0000
7F80
1F00
0E00
0E00
0E00
0E00
0E00
0E00
0E00
0E00
0E00
0E00
0E00
0E00
0E00
0E00
1E00
7F80
ENDCHAR

STARTCHAR char208
ENCODING 208
SWIDTH 16 0
DWIDTH 25 0
BBX 0 0 0 0
BITMAP
ENDCHAR

STARTCHAR char209
ENCODING 209
SWIDTH 31 0
DWIDTH 19 0
BBX 17 23 0 0
BITMAP
000800
07D800
07F000
08E000
000000
FC0F80
7C0300
3E0300
3F0300
378300
378300
33C300
33E300
31F300
30F300
307B00
307F00
303F00
301F00
300F00
300F00
700700
F80300
ENDCHAR

STARTCHAR char210
ENCODING 210
SWIDTH 2 0
DWIDTH 21 0
BBX 17 22 1 0
BITMAP
07C000
01C000
00E000
000000
07F000
0E3800
180E00
380600
700700
700700
F00380
E00380
E00380
E00380
E00380
E00780
F00700
700F00
780E00
381C00
1C3800
07E000
ENDCHAR

STARTCHAR char211
ENCODING 211
SWIDTH 2 0
DWIDTH 21 0
BBX 17 22 1 0
BITMAP
00F800
01E000
018000
000000
07F000
0E3800
180E00
380600
700700
700700
F00380
E00380
E00380
E00380
E00380
E00780
F00700
700F00
780E00
381C00
1C3800
07E000
ENDCHAR

STARTCHAR char212
ENCODING 212
SWIDTH 2 0
DWIDTH 21 0
BBX 17 22 1 0
BITMAP
03E000
07E000
0C3000
000000
07F000
0E3800
180E00
380600
700700
700700
F00380
E00380
E00380
E00380
E00380
E00780
F00700
700F00
780E00
381C00
1C3800
07E000
ENDCHAR

STARTCHAR char213
ENCODING 213
SWIDTH 2 0
DWIDTH 21 0
BBX 17 23 1 0
BITMAP
001000
079000
07F000
08E000
000000
07F000
0C3800
180E00
380600
700700
700700
E00380
E00380
E00380
E00380
E00380
E00780
700700
700F00
780E00
381C00
1C3800
07E000
ENDCHAR

STARTCHAR char214
ENCODING 214
SWIDTH 2 0
DWIDTH 21 0
BBX 18 23 0 0
BITMAP
020800
071C00
071C00
020800
000000
03F800
0F1E00
1C0700
3C0780
780780
7803C0
7803C0
F803C0
F803C0
F807C0
F807C0
7803C0
7803C0
780780
3C0780
1C0700
0E1E00
03F800
ENDCHAR

STARTCHAR char215
ENCODING 215
SWIDTH 16 0
DWIDTH 25 0
BBX 0 0 0 0
BITMAP
ENDCHAR

STARTCHAR char216
ENCODING 216
SWIDTH 2 0
DWIDTH 21 0
BBX 17 18 1 0
BITMAP
07F100
0C3F00
181C00
380E00
701F00
703700
E06780
E04380
E08380
E10380
E20380
F40780
F80700
780700
700E00
380E00
7C1800
4FF000
ENDCHAR

STARTCHAR char217
ENCODING 217
SWIDTH 31 0
DWIDTH 19 0
BBX 17 22 0 0
BITMAP
07C000
03C000
00E000
000000
FE0780
7C0300
380200
380200
380200
380300
380300
380300
380300
380300
380300
380300
380300
380300
380200
1C0600
1E0800
07F000
ENDCHAR

STARTCHAR char218
ENCODING 218
SWIDTH 31 0
DWIDTH 19 0
BBX 17 22 0 0
BITMAP
00F000
01E000
018000
000000
FE0780
7C0300
380200
380200
380200
380300
380300
380300
380300
380300
380300
380300
380300
380300
380200
1C0600
1E0800
07F000
ENDCHAR

STARTCHAR char219
ENCODING 219
SWIDTH 31 0
DWIDTH 19 0
BBX 17 22 0 0
BITMAP
03E000
07F000
0E3000
000000
FE0780
7C0300
380200
380200
380200
380300
380300
380300
380300
380300
380300
380300
380300
380300
380200
1C0600
1E0800
07F000
ENDCHAR

STARTCHAR char220
ENCODING 220
SWIDTH 31 0
DWIDTH 19 0
BBX 17 23 0 0
BITMAP
070800
071C00
071C00
060800
000000
FE0F80
7C0300
380200
380200
380200
380200
380200
380200
380200
380200
380200
3C0200
3C0200
3C0200
3C0200
1C0600
1E0C00
07F000
ENDCHAR

STARTCHAR char221
ENCODING 221
SWIDTH 16 0
DWIDTH 25 0
BBX 0 0 0 0
BITMAP
ENDCHAR

STARTCHAR char222
ENCODING 222
SWIDTH 16 0
DWIDTH 25 0
BBX 0 0 0 0
BITMAP
ENDCHAR

STARTCHAR char223
ENCODING 223
SWIDTH 10 0
DWIDTH 13 0
BBX 11 18 0 0
BITMAP
1F00
3180
71C0
71C0
71C0
71C0
7180
7700
71C0
71C0
70E0
70E0
70E0
70E0
70E0
70C0
71C0
FB80
ENDCHAR

STARTCHAR char224
ENCODING 224
SWIDTH 6 0
DWIDTH 12 0
BBX 11 17 0 0
BITMAP
3800
1C00
0C00
0400
0000
1F00
6380
E380
F380
E380
0F80
3B80
7380
E380
F380
FFE0
79C0
ENDCHAR

STARTCHAR char225
ENCODING 225
SWIDTH 6 0
DWIDTH 12 0
BBX 11 17 0 0
BITMAP
0700
0600
0C00
0800
0000
1F00
6380
E380
F380
E380
0F80
3B80
7380
E380
F380
FFE0
79C0
ENDCHAR

STARTCHAR char226
ENCODING 226
SWIDTH 6 0
DWIDTH 12 0
BBX 11 17 0 0
BITMAP
1E00
1E00
3300
4100
0000
1F00
6380
E380
F380
E380
0F80
3B80
7380
E380
F380
FFE0
79C0
ENDCHAR

STARTCHAR char227
ENCODING 227
SWIDTH 6 0
DWIDTH 12 0
BBX 11 17 0 0
BITMAP
3CC0
7F80
4700
0000
0000
1F00
6380
E380
F380
E380
0F80
3B80
7380
E380
F380
FFE0
71C0
ENDCHAR

STARTCHAR char228
ENCODING 228
SWIDTH 6 0
DWIDTH 12 0
BBX 11 18 0 0
BITMAP
6080
71C0
71C0
7080
0000
0000
1F00
6380
E380
F3C0
63C0
0FC0
3BC0
73C0
E3C0
F3C0
FFE0
7BE0
ENDCHAR

STARTCHAR char229
ENCODING 229
SWIDTH 6 0
DWIDTH 12 0
BBX 11 18 0 0
BITMAP
0C00
1A00
1200
1200
0C00
0000
1F00
6380
E380
F380
6380
0F80
3B80
7380
E380
F380
FFE0
7BE0
ENDCHAR

STARTCHAR char230
ENCODING 230
SWIDTH 24 0
DWIDTH 17 0
BBX 15 12 0 0
BITMAP
3F78
638C
E38C
E38E
038E
1FFE
3B80
6380
E382
E7C4
FDF8
70F0
ENDCHAR

STARTCHAR char231
ENCODING 231
SWIDTH 3 0
DWIDTH 11 0
BBX 9 17 1 -5
BITMAP
1E00
3300
6380
E380
E000
E000
E000
E000
F080
7880
7F00
3E00
0C00
1E00
0E00
0E00
7C00
ENDCHAR

STARTCHAR char232
ENCODING 232
SWIDTH 6 0
DWIDTH 12 0
BBX 10 17 1 0
BITMAP
7000
3800
1800
0800
0000
1E00
3300
6380
E380
E380
FF80
E000
E000
E040
7080
7F00
3E00
ENDCHAR

STARTCHAR char233
ENCODING 233
SWIDTH 6 0
DWIDTH 12 0
BBX 10 17 1 0
BITMAP
0E00
0C00
1800
1000
0000
1E00
3300
6380
E380
E380
FF80
E000
E000
E040
7080
7F00
3E00
ENDCHAR

STARTCHAR char234
ENCODING 234
SWIDTH 6 0
DWIDTH 12 0
BBX 10 17 1 0
BITMAP
3C00
3E00
6600
4300
0000
1E00
3300
6380
E380
E380
FF80
E000
E000
E040
7080
7F00
3E00
ENDCHAR

STARTCHAR char235
ENCODING 235
SWIDTH 6 0
DWIDTH 12 0
BBX 11 17 0 0
BITMAP
3080
71C0
71C0
6080
0000
0F00
1980
30C0
70C0
70C0
7FC0
7000
7000
7020
3840
3F80
1F00
ENDCHAR

STARTCHAR char236
ENCODING 236
SWIDTH 25 0
DWIDTH 7 0
BBX 7 17 -1 0
BITMAP
70
30
18
08
00
7C
1C
1C
1C
1C
1C
1C
1C
1C
1C
1C
7E
ENDCHAR

STARTCHAR char237
ENCODING 237
SWIDTH 25 0
DWIDTH 7 0
BBX 7 17 0 0
BITMAP
1C
18
10
30
00
F8
38
38
38
38
38
38
38
38
38
38
FC
ENDCHAR

STARTCHAR char238
ENCODING 238
SWIDTH 25 0
DWIDTH 7 0
BBX 8 17 -1 0
BITMAP
1C
3C
66
C3
00
7C
1C
1C
1C
1C
1C
1C
1C
1C
1C
1C
7E
ENDCHAR

STARTCHAR char239
ENCODING 239
SWIDTH 25 0
DWIDTH 7 0
BBX 10 17 -2 0
BITMAP
6180
F1C0
F1C0
6180
0000
3E00
0E00
0E00
0E00
0E00
0E00
0E00
0E00
0E00
0E00
0E00
3F00
ENDCHAR

STARTCHAR char241
ENCODING 241
SWIDTH 13 0
DWIDTH 14 0
BBX 12 17 0 0
BITMAP
1E40
3FC0
4380
0000
0000
F3C0
75E0
78E0
70E0
70E0
70E0
70E0
70E0
70E0
70E0
70E0
FDF0
ENDCHAR

STARTCHAR char242
ENCODING 242
SWIDTH 6 0
DWIDTH 12 0
BBX 10 17 1 0
BITMAP
3800
3800
1800
0800
0000
1E00
7380
6180
E1C0
E1C0
E1C0
E1C0
E1C0
E1C0
6180
3300
1E00
ENDCHAR

STARTCHAR char243
ENCODING 243
SWIDTH 6 0
DWIDTH 12 0
BBX 10 17 1 0
BITMAP
0F00
0E00
0C00
0800
0000
1E00
7380
6180
E1C0
E1C0
E1C0
E1C0
E1C0
E1C0
6180
3300
1E00
ENDCHAR

STARTCHAR char244
ENCODING 244
SWIDTH 6 0
DWIDTH 12 0
BBX 10 17 1 0
BITMAP
1C00
3E00
2600
4100
0000
1E00
7380
6180
E1C0
E1C0
E1C0
E1C0
E1C0
E1C0
6180
3300
1E00
ENDCHAR

STARTCHAR char245
ENCODING 245
SWIDTH 6 0
DWIDTH 12 0
BBX 10 17 1 0
BITMAP
3880
7F00
CE00
0000
0000
1E00
7380
6180
E1C0
E1C0
E1C0
E1C0
E1C0
E1C0
6180
3300
1E00
ENDCHAR

STARTCHAR char246
ENCODING 246
SWIDTH 6 0
DWIDTH 12 0
BBX 10 18 1 0
BITMAP
6380
6380
7380
6380
0000
0000
1E00
7380
6380
E1C0
E1C0
E1C0
E1C0
E1C0
E3C0
6380
3300
1E00
ENDCHAR

STARTCHAR char247
ENCODING 247
SWIDTH 13 0
DWIDTH 14 0
BBX 13 9 0 2
BITMAP
0700
0700
0700
0000
FFF8
0000
0700
0700
0700
ENDCHAR

STARTCHAR char248
ENCODING 248
SWIDTH 6 0
DWIDTH 12 0
BBX 10 12 0 0
BITMAP
0F40
3980
3180
71C0
73C0
75C0
75C0
79C0
31C0
3180
7100
5E00
ENDCHAR

STARTCHAR char249
ENCODING 249
SWIDTH 13 0
DWIDTH 14 0
BBX 12 17 0 0
BITMAP
3C00
1C00
0C00
0600
0000
F3E0
70E0
70E0
70E0
70E0
70E0
70E0
70E0
70E0
71E0
7EE0
3CF0
ENDCHAR

STARTCHAR char250
ENCODING 250
SWIDTH 13 0
DWIDTH 14 0
BBX 12 17 0 0
BITMAP
0780
0700
0600
0C00
0000
F3E0
70E0
70E0
70E0
70E0
70E0
70E0
70E0
70E0
71E0
7EE0
3CF0
ENDCHAR

STARTCHAR char251
ENCODING 251
SWIDTH 13 0
DWIDTH 14 0
BBX 12 17 0 0
BITMAP
0E00
1F00
3980
2080
0000
F3E0
70E0
70E0
70E0
70E0
70E0
70E0
70E0
70E0
71E0
7EE0
3CF0
ENDCHAR

STARTCHAR char252
ENCODING 252
SWIDTH 13 0
DWIDTH 14 0
BBX 12 17 0 0
BITMAP
31C0
71C0
71C0
31C0
0000
F3E0
70E0
70E0
70E0
70E0
70E0
71E0
71E0
71E0
71E0
7FE0
3DF0
ENDCHAR

STARTCHAR char255
ENCODING 255
SWIDTH 6 0
DWIDTH 12 0
BBX 11 21 0 -4
BITMAP
2100
7380
7380
2100
0000
FDE0
7840
3880
3880
1C80
1D00
1F00
0E00
0E00
0E00
0400
0400
6400
E800
F800
7000
ENDCHAR
ENDFONT
